<?xml version="1.0" encoding="UTF-8"?>
<!DOCTYPE svg PUBLIC "-//W3C//DTD SVG 1.1//EN" "http://www.w3.org/Graphics/SVG/1.1/DTD/svg11.dtd">
<!-- Creator: CorelDRAW -->
<svg xmlns="http://www.w3.org/2000/svg" xml:space="preserve" width="665.638mm" height="156.299mm" version="1.1" style="shape-rendering:geometricPrecision; text-rendering:geometricPrecision; image-rendering:optimizeQuality; fill-rule:evenodd; clip-rule:evenodd"
viewBox="0 0 66563.06 15629.72"
 xmlns:xlink="http://www.w3.org/1999/xlink"
 xmlns:xodm="http://www.corel.com/coreldraw/odm/2003">
 <defs>
  <style type="text/css">
   <![CDATA[
    .fil0 {fill:#0057C1;fill-rule:nonzero}
    .fil1 {fill:#373435;fill-rule:nonzero}
   ]]>
  </style>
 </defs>
 <g id="Слой_x0020_1">
  <metadata id="CorelCorpID_0Corel-Layer"/>
  <polygon class="fil0" points="20658.47,5778.95 21812.24,2243.87 20793.58,1924.04 23756.38,0 25087.91,3272.25 24069.21,2952.42 23191.52,5778.95 20081.49,15629.72 17069.97,15629.72 13988.09,5778.95 16521.14,5778.95 18589.82,12730.78 "/>
  <path class="fil1" d="M3672.93 5778.95c1435.37,0 2633.9,471.44 3595.53,1414.27 961.6,942.87 1442.41,2113.25 1442.41,3511.1 0,1397.89 -480.81,2568.26 -1442.41,3511.09 -961.63,942.87 -2160.16,1414.31 -3595.53,1414.31l-3672.93 0 0 -9850.77 3672.93 0zm0 7571.03c778.65,0 1414.27,-246.28 1906.81,-738.82 492.54,-492.53 738.82,-1128.16 738.82,-1906.84 0,-788.03 -246.28,-1426 -738.82,-1913.85 -492.54,-487.85 -1128.16,-731.78 -1906.81,-731.78l-1280.62 0 0 5291.29 1280.62 0zm6585.94 2279.74l0 -9850.77 2392.31 0 0 9850.77 -2392.31 0zm14269.55 0l0 -9850.77 2392.31 0 0 9850.77 -2392.31 0zm8035.43 -9850.77c1435.37,0 2633.89,471.44 3595.53,1414.27 961.59,942.87 1442.4,2113.25 1442.4,3511.1 0,1397.89 -480.81,2568.26 -1442.4,3511.09 -961.64,942.87 -2160.16,1414.31 -3595.53,1414.31l-3672.93 0 0 -9850.77 3672.93 0zm0 7571.03c778.64,0 1414.27,-246.28 1906.81,-738.82 492.53,-492.53 738.81,-1128.16 738.81,-1906.84 0,-788.03 -246.28,-1426 -738.81,-1913.85 -492.54,-487.85 -1128.17,-731.78 -1906.81,-731.78l-1280.62 0 0 5291.29 1280.62 0zm13368.89 -5291.29l-4390.63 0 0 1463.56 3996.6 0 0 2279.74 -3996.6 0 0 1547.99 4390.63 0 0 2279.74 -6782.96 0 0 -9850.77 6782.96 0 0 2279.74zm7627.32 -2279.74l2392.31 0 0 9850.77 -2715.99 0 -3701.07 -6205.97 197.02 2082.72 0 4123.26 -2392.32 0 0 -9850.77 2715.99 0 3687.01 6205.97 -182.95 -2082.72 0 -4123.26zm7965.06 0c1435.37,0 2633.9,471.44 3595.53,1414.27 961.6,942.87 1442.41,2113.25 1442.41,3511.1 0,1397.89 -480.81,2568.26 -1442.41,3511.09 -961.63,942.87 -2160.16,1414.31 -3595.53,1414.31l-3672.93 0 0 -9850.77 3672.93 0zm0 7571.03c778.65,0 1414.27,-246.28 1906.81,-738.82 492.54,-492.53 738.82,-1128.16 738.82,-1906.84 0,-788.03 -246.28,-1426 -738.82,-1913.85 -492.54,-487.85 -1128.16,-731.78 -1906.81,-731.78l-1280.61 0 0 5291.29 1280.61 0z"/>
 </g>
</svg>
