<?xml version="1.0" encoding="UTF-8"?>
<!DOCTYPE svg PUBLIC "-//W3C//DTD SVG 1.1//EN" "http://www.w3.org/Graphics/SVG/1.1/DTD/svg11.dtd">
<!-- Creator: CorelDRAW -->
<svg xmlns="http://www.w3.org/2000/svg" xml:space="preserve" width="519.348mm" height="121.948mm" version="1.1" style="shape-rendering:geometricPrecision; text-rendering:geometricPrecision; image-rendering:optimizeQuality; fill-rule:evenodd; clip-rule:evenodd"
viewBox="0 0 51934.14 12194.69"
 xmlns:xlink="http://www.w3.org/1999/xlink"
 xmlns:xodm="http://www.corel.com/coreldraw/odm/2003">
 <defs>
  <style type="text/css">
   <![CDATA[
    .fil0 {fill:#0057C1;fill-rule:nonzero}
    .fil1 {fill:#FEFEFE;fill-rule:nonzero}
   ]]>
  </style>
 </defs>
 <g id="Слой_x0020_1">
  <metadata id="CorelCorpID_0Corel-Layer"/>
  <polygon class="fil0" points="16118.25,4508.88 17018.44,1750.72 16223.66,1501.18 18535.31,0 19574.2,2553.09 18779.39,2303.55 18094.59,4508.88 15668.07,12194.69 13318.41,12194.69 10913.85,4508.88 12890.2,4508.88 14504.24,9932.87 "/>
  <path class="fil1" d="M2865.71 4508.88c1119.92,0 2055.03,367.83 2805.32,1103.45 750.26,735.65 1125.41,1648.81 1125.41,2739.44 0,1090.67 -375.15,2003.82 -1125.41,2739.44 -750.29,735.65 -1685.41,1103.48 -2805.32,1103.48l-2865.71 0 0 -7685.81 2865.71 0zm0 5907.1c607.52,0 1103.45,-192.15 1487.74,-576.44 384.29,-384.29 576.44,-880.22 576.44,-1487.77 0,-614.84 -192.15,-1112.6 -576.44,-1493.23 -384.29,-380.63 -880.22,-570.95 -1487.74,-570.95l-999.17 0 0 4128.4 999.17 0zm5138.51 1778.71l0 -7685.81 1866.55 0 0 7685.81 -1866.55 0zm11133.45 0l0 -7685.81 1866.55 0 0 7685.81 -1866.55 0zm6269.44 -7685.81c1119.92,0 2055.03,367.83 2805.32,1103.45 750.26,735.65 1125.41,1648.81 1125.41,2739.44 0,1090.67 -375.15,2003.82 -1125.41,2739.44 -750.29,735.65 -1685.41,1103.48 -2805.32,1103.48l-2865.71 0 0 -7685.81 2865.71 0zm0 5907.1c607.52,0 1103.45,-192.15 1487.74,-576.44 384.29,-384.29 576.44,-880.22 576.44,-1487.77 0,-614.84 -192.15,-1112.6 -576.44,-1493.23 -384.29,-380.63 -880.22,-570.95 -1487.74,-570.95l-999.17 0 0 4128.4 999.17 0zm10430.74 -4128.4l-3425.68 0 0 1141.9 3118.25 0 0 1778.71 -3118.25 0 0 1207.78 3425.68 0 0 1778.71 -5292.23 0 0 -7685.81 5292.23 0 0 1778.71zm5951.02 -1778.71l1866.55 0 0 7685.81 -2119.08 0 -2887.67 -4842.06 153.72 1624.99 0 3217.07 -1866.55 0 0 -7685.81 2119.08 0 2876.69 4842.06 -142.74 -1624.99 0 -3217.07zm6214.54 0c1119.92,0 2055.03,367.83 2805.32,1103.45 750.26,735.65 1125.41,1648.81 1125.41,2739.44 0,1090.67 -375.15,2003.82 -1125.41,2739.44 -750.29,735.65 -1685.41,1103.48 -2805.32,1103.48l-2865.71 0 0 -7685.81 2865.71 0zm0 5907.1c607.52,0 1103.45,-192.15 1487.74,-576.44 384.29,-384.29 576.44,-880.22 576.44,-1487.77 0,-614.84 -192.15,-1112.6 -576.44,-1493.23 -384.29,-380.63 -880.22,-570.95 -1487.74,-570.95l-999.17 0 0 4128.4 999.17 0z"/>
 </g>
</svg>
